<svg version="1.1" viewBox="0.0 0.0 447.0 278.0" fill="none" stroke="none" stroke-linecap="square" stroke-miterlimit="10" width="447" height="278" xmlns:xlink="http://www.w3.org/1999/xlink" xmlns="http://www.w3.org/2000/svg"><path fill="#ffffff" d="M0 0L447.0 0L447.0 278.0L0 278.0L0 0Z" fill-rule="nonzero"/><path stroke="#333333" stroke-width="1.0" stroke-linecap="butt" d="M40.5 230.5L433.5 230.5" fill-rule="nonzero"/><path stroke="#cccccc" stroke-width="1.0" stroke-linecap="butt" d="M40.5 186.5L433.5 186.5" fill-rule="nonzero"/><path stroke="#cccccc" stroke-width="1.0" stroke-linecap="butt" d="M40.5 142.5L433.5 142.5" fill-rule="nonzero"/><path stroke="#cccccc" stroke-width="1.0" stroke-linecap="butt" d="M40.5 98.5L433.5 98.5" fill-rule="nonzero"/><path stroke="#cccccc" stroke-width="1.0" stroke-linecap="butt" d="M40.5 54.5L433.5 54.5" fill-rule="nonzero"/><clipPath id="id_0"><path d="M40.9 54.666668L433.1 54.666668L433.1 230.1L40.9 230.1L40.9 54.666668Z" clip-rule="nonzero"/></clipPath><path stroke="#000000" stroke-width="2.0" stroke-linecap="butt" stroke-opacity="0.0" clip-path="url(#id_0)" d="M56.0 230.0L46.0 230.0L46.0 228.0C46.0 226.89543 46.89543 226.0 48.0 226.0L54.0 226.0C55.10457 226.0 56.0 226.89543 56.0 228.0Z" fill-rule="nonzero"/><path fill="#4285f4" clip-path="url(#id_0)" d="M56.0 230.0L46.0 230.0L46.0 228.0C46.0 226.89543 46.89543 226.0 48.0 226.0L54.0 226.0C55.10457 226.0 56.0 226.89543 56.0 228.0Z" fill-rule="nonzero"/><path stroke="#000000" stroke-width="2.0" stroke-linecap="butt" stroke-opacity="0.0" clip-path="url(#id_0)" d="M71.0 230.0L61.0 230.0L61.0 219.0C61.0 217.89543 61.89543 217.0 63.0 217.0L69.0 217.0C70.10457 217.0 71.0 217.89543 71.0 219.0Z" fill-rule="nonzero"/><path fill="#4285f4" clip-path="url(#id_0)" d="M71.0 230.0L61.0 230.0L61.0 219.0C61.0 217.89543 61.89543 217.0 63.0 217.0L69.0 217.0C70.10457 217.0 71.0 217.89543 71.0 219.0Z" fill-rule="nonzero"/><path stroke="#000000" stroke-width="2.0" stroke-linecap="butt" stroke-opacity="0.0" clip-path="url(#id_0)" d="M86.0 230.0L76.0 230.0L76.0 219.0C76.0 217.89543 76.89543 217.0 78.0 217.0L84.0 217.0C85.10457 217.0 86.0 217.89543 86.0 219.0Z" fill-rule="nonzero"/><path fill="#4285f4" clip-path="url(#id_0)" d="M86.0 230.0L76.0 230.0L76.0 219.0C76.0 217.89543 76.89543 217.0 78.0 217.0L84.0 217.0C85.10457 217.0 86.0 217.89543 86.0 219.0Z" fill-rule="nonzero"/><path stroke="#000000" stroke-width="2.0" stroke-linecap="butt" stroke-opacity="0.0" clip-path="url(#id_0)" d="M101.0 230.0L91.0 230.0L91.0 206.0C91.0 204.89543 91.89543 204.0 93.0 204.0L99.0 204.0C100.10457 204.0 101.0 204.89543 101.0 206.0Z" fill-rule="nonzero"/><path fill="#4285f4" clip-path="url(#id_0)" d="M101.0 230.0L91.0 230.0L91.0 206.0C91.0 204.89543 91.89543 204.0 93.0 204.0L99.0 204.0C100.10457 204.0 101.0 204.89543 101.0 206.0Z" fill-rule="nonzero"/><path stroke="#000000" stroke-width="2.0" stroke-linecap="butt" stroke-opacity="0.0" clip-path="url(#id_0)" d="M115.0 230.0L105.0 230.0L105.0 228.0C105.0 226.89543 105.89543 226.0 107.0 226.0L113.0 226.0C114.10457 226.0 115.0 226.89543 115.0 228.0Z" fill-rule="nonzero"/><path fill="#4285f4" clip-path="url(#id_0)" d="M115.0 230.0L105.0 230.0L105.0 228.0C105.0 226.89543 105.89543 226.0 107.0 226.0L113.0 226.0C114.10457 226.0 115.0 226.89543 115.0 228.0Z" fill-rule="nonzero"/><path stroke="#000000" stroke-width="2.0" stroke-linecap="butt" stroke-opacity="0.0" clip-path="url(#id_0)" d="M130.0 230.0L120.0 230.0L120.0 219.0C120.0 217.89543 120.89543 217.0 122.0 217.0L128.0 217.0C129.10457 217.0 130.0 217.89543 130.0 219.0Z" fill-rule="nonzero"/><path fill="#4285f4" clip-path="url(#id_0)" d="M130.0 230.0L120.0 230.0L120.0 219.0C120.0 217.89543 120.89543 217.0 122.0 217.0L128.0 217.0C129.10457 217.0 130.0 217.89543 130.0 219.0Z" fill-rule="nonzero"/><path stroke="#000000" stroke-width="2.0" stroke-linecap="butt" stroke-opacity="0.0" clip-path="url(#id_0)" d="M145.0 230.0L135.0 230.0L135.0 206.0C135.0 204.89543 135.89543 204.0 137.0 204.0L143.0 204.0C144.10457 204.0 145.0 204.89543 145.0 206.0Z" fill-rule="nonzero"/><path fill="#4285f4" clip-path="url(#id_0)" d="M145.0 230.0L135.0 230.0L135.0 206.0C135.0 204.89543 135.89543 204.0 137.0 204.0L143.0 204.0C144.10457 204.0 145.0 204.89543 145.0 206.0Z" fill-rule="nonzero"/><path stroke="#000000" stroke-width="2.0" stroke-linecap="butt" stroke-opacity="0.0" clip-path="url(#id_0)" d="M160.0 230.0L150.0 230.0L150.0 201.0C150.0 199.89543 150.89543 199.0 152.0 199.0L158.0 199.0C159.10457 199.0 160.0 199.89543 160.0 201.0Z" fill-rule="nonzero"/><path fill="#4285f4" clip-path="url(#id_0)" d="M160.0 230.0L150.0 230.0L150.0 201.0C150.0 199.89543 150.89543 199.0 152.0 199.0L158.0 199.0C159.10457 199.0 160.0 199.89543 160.0 201.0Z" fill-rule="nonzero"/><path stroke="#000000" stroke-width="2.0" stroke-linecap="butt" stroke-opacity="0.0" clip-path="url(#id_0)" d="M175.0 230.0L165.0 230.0L165.0 197.0C165.0 195.89543 165.89543 195.0 167.0 195.0L173.0 195.0C174.10457 195.0 175.0 195.89543 175.0 197.0Z" fill-rule="nonzero"/><path fill="#4285f4" clip-path="url(#id_0)" d="M175.0 230.0L165.0 230.0L165.0 197.0C165.0 195.89543 165.89543 195.0 167.0 195.0L173.0 195.0C174.10457 195.0 175.0 195.89543 175.0 197.0Z" fill-rule="nonzero"/><path stroke="#000000" stroke-width="2.0" stroke-linecap="butt" stroke-opacity="0.0" clip-path="url(#id_0)" d="M190.0 230.0L180.0 230.0L180.0 184.0C180.0 182.89543 180.89543 182.0 182.0 182.0L188.0 182.0C189.10457 182.0 190.0 182.89543 190.0 184.0Z" fill-rule="nonzero"/><path fill="#4285f4" clip-path="url(#id_0)" d="M190.0 230.0L180.0 230.0L180.0 184.0C180.0 182.89543 180.89543 182.0 182.0 182.0L188.0 182.0C189.10457 182.0 190.0 182.89543 190.0 184.0Z" fill-rule="nonzero"/><path stroke="#000000" stroke-width="2.0" stroke-linecap="butt" stroke-opacity="0.0" clip-path="url(#id_0)" d="M205.0 230.0L195.0 230.0L195.0 179.0C195.0 177.89543 195.89543 177.0 197.0 177.0L203.0 177.0C204.10457 177.0 205.0 177.89543 205.0 179.0Z" fill-rule="nonzero"/><path fill="#4285f4" clip-path="url(#id_0)" d="M205.0 230.0L195.0 230.0L195.0 179.0C195.0 177.89543 195.89543 177.0 197.0 177.0L203.0 177.0C204.10457 177.0 205.0 177.89543 205.0 179.0Z" fill-rule="nonzero"/><path stroke="#000000" stroke-width="2.0" stroke-linecap="butt" stroke-opacity="0.0" clip-path="url(#id_0)" d="M220.0 230.0L210.0 230.0L210.0 158.0C210.0 156.89543 210.89543 156.0 212.0 156.0L218.0 156.0C219.10457 156.0 220.0 156.89543 220.0 158.0Z" fill-rule="nonzero"/><path fill="#4285f4" clip-path="url(#id_0)" d="M220.0 230.0L210.0 230.0L210.0 158.0C210.0 156.89543 210.89543 156.0 212.0 156.0L218.0 156.0C219.10457 156.0 220.0 156.89543 220.0 158.0Z" fill-rule="nonzero"/><path stroke="#000000" stroke-width="2.0" stroke-linecap="butt" stroke-opacity="0.0" clip-path="url(#id_0)" d="M235.0 230.0L225.0 230.0L225.0 136.0C225.0 134.89543 225.89543 134.0 227.0 134.0L233.0 134.0C234.10457 134.0 235.0 134.89543 235.0 136.0Z" fill-rule="nonzero"/><path fill="#4285f4" clip-path="url(#id_0)" d="M235.0 230.0L225.0 230.0L225.0 136.0C225.0 134.89543 225.89543 134.0 227.0 134.0L233.0 134.0C234.10457 134.0 235.0 134.89543 235.0 136.0Z" fill-rule="nonzero"/><path stroke="#000000" stroke-width="2.0" stroke-linecap="butt" stroke-opacity="0.0" clip-path="url(#id_0)" d="M249.0 230.0L239.0 230.0L239.0 74.0C239.0 72.89543 239.89543 72.0 241.0 72.0L247.0 72.0C248.10457 72.0 249.0 72.89543 249.0 74.0Z" fill-rule="nonzero"/><path fill="#4285f4" clip-path="url(#id_0)" d="M249.0 230.0L239.0 230.0L239.0 74.0C239.0 72.89543 239.89543 72.0 241.0 72.0L247.0 72.0C248.10457 72.0 249.0 72.89543 249.0 74.0Z" fill-rule="nonzero"/><path stroke="#000000" stroke-width="2.0" stroke-linecap="butt" stroke-opacity="0.0" clip-path="url(#id_0)" d="M264.0 230.0L254.0 230.0L254.0 153.0C254.0 151.89543 254.89543 151.0 256.0 151.0L262.0 151.0C263.10458 151.0 264.0 151.89543 264.0 153.0Z" fill-rule="nonzero"/><path fill="#4285f4" clip-path="url(#id_0)" d="M264.0 230.0L254.0 230.0L254.0 153.0C254.0 151.89543 254.89543 151.0 256.0 151.0L262.0 151.0C263.10458 151.0 264.0 151.89543 264.0 153.0Z" fill-rule="nonzero"/><path stroke="#000000" stroke-width="2.0" stroke-linecap="butt" stroke-opacity="0.0" clip-path="url(#id_0)" d="M279.0 230.0L269.0 230.0L269.0 140.0C269.0 138.89543 269.89542 138.0 271.0 138.0L277.0 138.0C278.10458 138.0 279.0 138.89543 279.0 140.0Z" fill-rule="nonzero"/><path fill="#4285f4" clip-path="url(#id_0)" d="M279.0 230.0L269.0 230.0L269.0 140.0C269.0 138.89543 269.89542 138.0 271.0 138.0L277.0 138.0C278.10458 138.0 279.0 138.89543 279.0 140.0Z" fill-rule="nonzero"/><path stroke="#000000" stroke-width="2.0" stroke-linecap="butt" stroke-opacity="0.0" clip-path="url(#id_0)" d="M294.0 230.0L284.0 230.0L284.0 153.0C284.0 151.89543 284.89542 151.0 286.0 151.0L292.0 151.0C293.10458 151.0 294.0 151.89543 294.0 153.0Z" fill-rule="nonzero"/><path fill="#4285f4" clip-path="url(#id_0)" d="M294.0 230.0L284.0 230.0L284.0 153.0C284.0 151.89543 284.89542 151.0 286.0 151.0L292.0 151.0C293.10458 151.0 294.0 151.89543 294.0 153.0Z" fill-rule="nonzero"/><path stroke="#000000" stroke-width="2.0" stroke-linecap="butt" stroke-opacity="0.0" clip-path="url(#id_0)" d="M309.0 230.0L299.0 230.0L299.0 101.0C299.0 99.89543 299.89542 99.0 301.0 99.0L307.0 99.0C308.10458 99.0 309.0 99.89543 309.0 101.0Z" fill-rule="nonzero"/><path fill="#4285f4" clip-path="url(#id_0)" d="M309.0 230.0L299.0 230.0L299.0 101.0C299.0 99.89543 299.89542 99.0 301.0 99.0L307.0 99.0C308.10458 99.0 309.0 99.89543 309.0 101.0Z" fill-rule="nonzero"/><path stroke="#000000" stroke-width="2.0" stroke-linecap="butt" stroke-opacity="0.0" clip-path="url(#id_0)" d="M324.0 230.0L314.0 230.0L314.0 144.0C314.0 142.89543 314.89542 142.0 316.0 142.0L322.0 142.0C323.10458 142.0 324.0 142.89543 324.0 144.0Z" fill-rule="nonzero"/><path fill="#4285f4" clip-path="url(#id_0)" d="M324.0 230.0L314.0 230.0L314.0 144.0C314.0 142.89543 314.89542 142.0 316.0 142.0L322.0 142.0C323.10458 142.0 324.0 142.89543 324.0 144.0Z" fill-rule="nonzero"/><path stroke="#000000" stroke-width="2.0" stroke-linecap="butt" stroke-opacity="0.0" clip-path="url(#id_0)" d="M339.0 230.0L329.0 230.0L329.0 127.0C329.0 125.89543 329.89542 125.0 331.0 125.0L337.0 125.0C338.10458 125.0 339.0 125.89543 339.0 127.0Z" fill-rule="nonzero"/><path fill="#4285f4" clip-path="url(#id_0)" d="M339.0 230.0L329.0 230.0L329.0 127.0C329.0 125.89543 329.89542 125.0 331.0 125.0L337.0 125.0C338.10458 125.0 339.0 125.89543 339.0 127.0Z" fill-rule="nonzero"/><path stroke="#000000" stroke-width="2.0" stroke-linecap="butt" stroke-opacity="0.0" clip-path="url(#id_0)" d="M354.0 230.0L344.0 230.0L344.0 149.0C344.0 147.89543 344.89542 147.0 346.0 147.0L352.0 147.0C353.10458 147.0 354.0 147.89543 354.0 149.0Z" fill-rule="nonzero"/><path fill="#4285f4" clip-path="url(#id_0)" d="M354.0 230.0L344.0 230.0L344.0 149.0C344.0 147.89543 344.89542 147.0 346.0 147.0L352.0 147.0C353.10458 147.0 354.0 147.89543 354.0 149.0Z" fill-rule="nonzero"/><path stroke="#000000" stroke-width="2.0" stroke-linecap="butt" stroke-opacity="0.0" clip-path="url(#id_0)" d="M369.0 230.0L359.0 230.0L359.0 171.0C359.0 169.89543 359.89542 169.0 361.0 169.0L367.0 169.0C368.10458 169.0 369.0 169.89543 369.0 171.0Z" fill-rule="nonzero"/><path fill="#4285f4" clip-path="url(#id_0)" d="M369.0 230.0L359.0 230.0L359.0 171.0C359.0 169.89543 359.89542 169.0 361.0 169.0L367.0 169.0C368.10458 169.0 369.0 169.89543 369.0 171.0Z" fill-rule="nonzero"/><path stroke="#000000" stroke-width="2.0" stroke-linecap="butt" stroke-opacity="0.0" clip-path="url(#id_0)" d="M383.0 230.0L373.0 230.0L373.0 109.0C373.0 107.89543 373.89542 107.0 375.0 107.0L381.0 107.0C382.10458 107.0 383.0 107.89543 383.0 109.0Z" fill-rule="nonzero"/><path fill="#4285f4" clip-path="url(#id_0)" d="M383.0 230.0L373.0 230.0L373.0 109.0C373.0 107.89543 373.89542 107.0 375.0 107.0L381.0 107.0C382.10458 107.0 383.0 107.89543 383.0 109.0Z" fill-rule="nonzero"/><path stroke="#000000" stroke-width="2.0" stroke-linecap="butt" stroke-opacity="0.0" clip-path="url(#id_0)" d="M398.0 230.0L388.0 230.0L388.0 92.0C388.0 90.89543 388.89542 90.0 390.0 90.0L396.0 90.0C397.10458 90.0 398.0 90.89543 398.0 92.0Z" fill-rule="nonzero"/><path fill="#4285f4" clip-path="url(#id_0)" d="M398.0 230.0L388.0 230.0L388.0 92.0C388.0 90.89543 388.89542 90.0 390.0 90.0L396.0 90.0C397.10458 90.0 398.0 90.89543 398.0 92.0Z" fill-rule="nonzero"/><path stroke="#000000" stroke-width="2.0" stroke-linecap="butt" stroke-opacity="0.0" clip-path="url(#id_0)" d="M413.0 230.0L403.0 230.0L403.0 87.0C403.0 85.89543 403.89542 85.0 405.0 85.0L411.0 85.0C412.10458 85.0 413.0 85.89543 413.0 87.0Z" fill-rule="nonzero"/><path fill="#4285f4" clip-path="url(#id_0)" d="M413.0 230.0L403.0 230.0L403.0 87.0C403.0 85.89543 403.89542 85.0 405.0 85.0L411.0 85.0C412.10458 85.0 413.0 85.89543 413.0 87.0Z" fill-rule="nonzero"/><path stroke="#000000" stroke-width="2.0" stroke-linecap="butt" stroke-opacity="0.0" clip-path="url(#id_0)" d="M428.0 230.0L418.0 230.0L418.0 228.0C418.0 226.89543 418.89542 226.0 420.0 226.0L426.0 226.0C427.10458 226.0 428.0 226.89543 428.0 228.0Z" fill-rule="nonzero"/><path fill="#4285f4" clip-path="url(#id_0)" d="M428.0 230.0L418.0 230.0L418.0 228.0C418.0 226.89543 418.89542 226.0 420.0 226.0L426.0 226.0C427.10458 226.0 428.0 226.89543 428.0 228.0Z" fill-rule="nonzero"/><path fill="#757575" d="M33.9625 230.95938Q33.9625 232.86563 33.30625 233.80313Q32.665627 234.725 31.275 234.725Q29.915625 234.725 29.259375 233.81876Q28.603125 232.9125 28.571875 231.1L28.571875 229.6625Q28.571875 227.77188 29.2125 226.86563Q29.86875 225.94376 31.259375 225.94376Q32.634377 225.94376 33.290627 226.83438Q33.946877 227.70938 33.9625 229.55313L33.9625 230.95938ZM32.86875 229.475Q32.86875 228.1 32.478127 227.475Q32.103127 226.83438 31.259375 226.83438Q30.43125 226.83438 30.040625 227.475Q29.665625 228.1 29.665625 229.39688L29.665625 231.13126Q29.665625 232.50626 30.05625 233.17813Q30.4625 233.83438 31.275 233.83438Q32.071877 233.83438 32.4625 233.20938Q32.853127 232.58438 32.86875 231.25626L32.86875 229.475Z" fill-rule="nonzero"/><path fill="#757575" d="M25.165625 190.74167L24.0875 190.74167L24.0875 183.52292L21.9 184.3198L21.9 183.33542L25.009375 182.16354L25.165625 182.16354L25.165625 190.74167ZM33.9625 187.10104Q33.9625 189.0073 33.30625 189.9448Q32.665627 190.86667 31.275 190.86667Q29.915625 190.86667 29.259375 189.96042Q28.603125 189.05417 28.571875 187.24167L28.571875 185.80417Q28.571875 183.91354 29.2125 183.0073Q29.86875 182.08542 31.259375 182.08542Q32.634377 182.08542 33.290627 182.97604Q33.946877 183.85104 33.9625 185.6948L33.9625 187.10104ZM32.86875 185.61667Q32.86875 184.24167 32.478127 183.61667Q32.103127 182.97604 31.259375 182.97604Q30.43125 182.97604 30.040625 183.61667Q29.665625 184.24167 29.665625 185.53854L29.665625 187.27292Q29.665625 188.64792 30.05625 189.3198Q30.4625 189.97604 31.275 189.97604Q32.071877 189.97604 32.4625 189.35104Q32.853127 188.72604 32.86875 187.39792L32.86875 185.61667Z" fill-rule="nonzero"/><path fill="#757575" d="M27.196875 146.88333L21.603125 146.88333L21.603125 146.10208L24.55625 142.82083Q25.2125 142.07083 25.4625 141.6177Q25.7125 141.14896 25.7125 140.64896Q25.7125 139.97708 25.30625 139.5552Q24.915625 139.1177 24.228125 139.1177Q23.43125 139.1177 22.978125 139.58646Q22.525 140.03958 22.525 140.8677L21.446875 140.8677Q21.446875 139.6802 22.196875 138.96146Q22.9625 138.22708 24.228125 138.22708Q25.43125 138.22708 26.11875 138.85208Q26.80625 139.47708 26.80625 140.52396Q26.80625 141.77396 25.196875 143.52396L22.915625 145.9927L27.196875 145.9927L27.196875 146.88333ZM33.9625 143.2427Q33.9625 145.14896 33.30625 146.08646Q32.665627 147.00833 31.275 147.00833Q29.915625 147.00833 29.259375 146.10208Q28.603125 145.19583 28.571875 143.38333L28.571875 141.94583Q28.571875 140.0552 29.2125 139.14896Q29.86875 138.22708 31.259375 138.22708Q32.634377 138.22708 33.290627 139.1177Q33.946877 139.9927 33.9625 141.83646L33.9625 143.2427ZM32.86875 141.75833Q32.86875 140.38333 32.478127 139.75833Q32.103127 139.1177 31.259375 139.1177Q30.43125 139.1177 30.040625 139.75833Q29.665625 140.38333 29.665625 141.6802L29.665625 143.41458Q29.665625 144.78958 30.05625 145.46146Q30.4625 146.1177 31.275 146.1177Q32.071877 146.1177 32.4625 145.4927Q32.853127 144.8677 32.86875 143.53958L32.86875 141.75833Z" fill-rule="nonzero"/><path fill="#757575" d="M23.18125 98.22813L23.99375 98.22813Q24.775 98.2125 25.2125 97.82188Q25.65 97.43125 25.65 96.75938Q25.65 95.25938 24.15 95.25938Q23.446875 95.25938 23.025 95.66563Q22.61875 96.07188 22.61875 96.72813L21.525 96.72813Q21.525 95.7125 22.259375 95.04063Q23.009375 94.36875 24.15 94.36875Q25.353125 94.36875 26.040625 95.00938Q26.728125 95.65 26.728125 96.79063Q26.728125 97.35313 26.36875 97.86875Q26.009375 98.38438 25.384375 98.65Q26.0875 98.86875 26.4625 99.38438Q26.853125 99.9 26.853125 100.65Q26.853125 101.79063 26.103125 102.47813Q25.353125 103.15 24.15 103.15Q22.9625 103.15 22.196875 102.49375Q21.446875 101.8375 21.446875 100.775L22.540625 100.775Q22.540625 101.44688 22.978125 101.85313Q23.415625 102.25938 24.165625 102.25938Q24.946875 102.25938 25.353125 101.85313Q25.775 101.43125 25.775 100.66563Q25.775 99.93125 25.321875 99.54063Q24.86875 99.13438 23.99375 99.11875L23.18125 99.11875L23.18125 98.22813ZM33.9625 99.38438Q33.9625 101.29063 33.30625 102.22813Q32.665627 103.15 31.275 103.15Q29.915625 103.15 29.259375 102.24375Q28.603125 101.3375 28.571875 99.525L28.571875 98.0875Q28.571875 96.19688 29.2125 95.29063Q29.86875 94.36875 31.259375 94.36875Q32.634377 94.36875 33.290627 95.25938Q33.946877 96.13438 33.9625 97.97813L33.9625 99.38438ZM32.86875 97.9Q32.86875 96.525 32.478127 95.9Q32.103127 95.25938 31.259375 95.25938Q30.43125 95.25938 30.040625 95.9Q29.665625 96.525 29.665625 97.82188L29.665625 99.55625Q29.665625 100.93125 30.05625 101.60313Q30.4625 102.25938 31.275 102.25938Q32.071877 102.25938 32.4625 101.63438Q32.853127 101.00938 32.86875 99.68125L32.86875 97.9Z" fill-rule="nonzero"/><path fill="#757575" d="M26.18125 56.307293L27.36875 56.307293L27.36875 57.182293L26.18125 57.182293L26.18125 59.166668L25.103125 59.166668L25.103125 57.182293L21.2125 57.182293L21.2125 56.541668L25.025 50.635418L26.18125 50.635418L26.18125 56.307293ZM22.446875 56.307293L25.103125 56.307293L25.103125 52.119793L24.9625 52.354168L22.446875 56.307293ZM33.9625 55.526043Q33.9625 57.432293 33.30625 58.369793Q32.665627 59.291668 31.275 59.291668Q29.915625 59.291668 29.259375 58.385418Q28.603125 57.479168 28.571875 55.666668L28.571875 54.229168Q28.571875 52.338543 29.2125 51.432293Q29.86875 50.510418 31.259375 50.510418Q32.634377 50.510418 33.290627 51.401043Q33.946877 52.276043 33.9625 54.119793L33.9625 55.526043ZM32.86875 54.041668Q32.86875 52.666668 32.478127 52.041668Q32.103127 51.401043 31.259375 51.401043Q30.43125 51.401043 30.040625 52.041668Q29.665625 52.666668 29.665625 53.963543L29.665625 55.697918Q29.665625 57.072918 30.05625 57.744793Q30.4625 58.401043 31.275 58.401043Q32.071877 58.401043 32.4625 57.776043Q32.853127 57.151043 32.86875 55.822918L32.86875 54.041668Z" fill-rule="nonzero"/><path fill="#757575" d="M55.44688 259.83438L55.44688 260.9125L48.22813 260.9125L49.025005 263.1L48.04063 263.1L46.868755 259.99063L46.868755 259.83438L55.44688 259.83438ZM51.69688 252.24063Q52.10313 252.56876 52.35313 253.05313Q52.587505 253.52188 52.587505 254.08438Q52.587505 254.81876 52.22813 255.36563Q51.868755 255.9125 51.212505 256.20938Q50.54063 256.50626 49.743755 256.50626Q48.900005 256.50626 48.212505 256.19376Q47.525005 255.86563 47.16563 255.27188Q46.79063 254.6625 46.79063 253.86563Q46.79063 252.6 47.743755 251.88126Q48.69688 251.14688 50.32188 251.14688L50.63438 251.14688Q53.13438 251.14688 54.275005 252.13126Q55.41563 253.11563 55.44688 255.1L55.44688 255.31876L54.54063 255.31876L54.54063 255.08438Q54.50938 253.74063 53.837505 253.02188Q53.16563 252.30313 51.69688 252.24063ZM51.69688 253.9125Q51.69688 253.36563 51.368755 252.9125Q51.025005 252.44376 50.54063 252.225L50.10313 252.225Q49.04063 252.225 48.368755 252.69376Q47.69688 253.1625 47.69688 253.86563Q47.69688 254.58438 48.243755 255.02188Q48.79063 255.44376 49.69688 255.44376Q50.57188 255.44376 51.13438 255.0375Q51.69688 254.61563 51.69688 253.9125ZM51.69688 245.24063Q52.10313 245.56876 52.35313 246.05313Q52.587505 246.52188 52.587505 247.08438Q52.587505 247.81876 52.22813 248.36563Q51.868755 248.9125 51.212505 249.20938Q50.54063 249.50626 49.743755 249.50626Q48.900005 249.50626 48.212505 249.19376Q47.525005 248.86563 47.16563 248.27188Q46.79063 247.6625 46.79063 246.86563Q46.79063 245.6 47.743755 244.88126Q48.69688 244.14688 50.32188 244.14688L50.63438 244.14688Q53.13438 244.14688 54.275005 245.13126Q55.41563 246.11563 55.44688 248.1L55.44688 248.31876L54.54063 248.31876L54.54063 248.08438Q54.50938 246.74063 53.837505 246.02188Q53.16563 245.30313 51.69688 245.24063ZM51.69688 246.9125Q51.69688 246.36563 51.368755 245.9125Q51.025005 245.44376 50.54063 245.225L50.10313 245.225Q49.04063 245.225 48.368755 245.69376Q47.69688 246.1625 47.69688 246.86563Q47.69688 247.58438 48.243755 248.02188Q48.79063 248.44376 49.69688 248.44376Q50.57188 248.44376 51.13438 248.0375Q51.69688 247.61563 51.69688 246.9125ZM52.587505 237.81876L52.587505 236.63126L53.462505 236.63126L53.462505 237.81876L55.44688 237.81876L55.44688 238.89688L53.462505 238.89688L53.462505 242.7875L52.82188 242.7875L46.91563 238.975L46.91563 237.81876L52.587505 237.81876ZM52.587505 241.55313L52.587505 238.89688L48.400005 238.89688L48.63438 239.0375L52.587505 241.55313Z" fill-rule="nonzero"/><path fill="#757575" d="M85.21538 259.83438L85.21538 260.9125L77.99663 260.9125L78.7935 263.1L77.80913 263.1L76.63725 259.99063L76.63725 259.83438L85.21538 259.83438ZM81.46538 252.24063Q81.87163 252.56876 82.12163 253.05313Q82.356 253.52188 82.356 254.08438Q82.356 254.81876 81.99663 255.36563Q81.63725 255.9125 80.981 256.20938Q80.30913 256.50626 79.51225 256.50626Q78.6685 256.50626 77.981 256.19376Q77.2935 255.86563 76.93413 255.27188Q76.55913 254.6625 76.55913 253.86563Q76.55913 252.6 77.51225 251.88126Q78.46538 251.14688 80.09038 251.14688L80.40288 251.14688Q82.90288 251.14688 84.0435 252.13126Q85.18413 253.11563 85.21538 255.1L85.21538 255.31876L84.30913 255.31876L84.30913 255.08438Q84.27788 253.74063 83.606 253.02188Q82.93413 252.30313 81.46538 252.24063ZM81.46538 253.9125Q81.46538 253.36563 81.13725 252.9125Q80.7935 252.44376 80.30913 252.225L79.87163 252.225Q78.80913 252.225 78.13725 252.69376Q77.46538 253.1625 77.46538 253.86563Q77.46538 254.58438 78.01225 255.02188Q78.55913 255.44376 79.46538 255.44376Q80.34038 255.44376 80.90288 255.0375Q81.46538 254.61563 81.46538 253.9125ZM81.46538 245.24063Q81.87163 245.56876 82.12163 246.05313Q82.356 246.52188 82.356 247.08438Q82.356 247.81876 81.99663 248.36563Q81.63725 248.9125 80.981 249.20938Q80.30913 249.50626 79.51225 249.50626Q78.6685 249.50626 77.981 249.19376Q77.2935 248.86563 76.93413 248.27188Q76.55913 247.6625 76.55913 246.86563Q76.55913 245.6 77.51225 244.88126Q78.46538 244.14688 80.09038 244.14688L80.40288 244.14688Q82.90288 244.14688 84.0435 245.13126Q85.18413 246.11563 85.21538 248.1L85.21538 248.31876L84.30913 248.31876L84.30913 248.08438Q84.27788 246.74063 83.606 246.02188Q82.93413 245.30313 81.46538 245.24063ZM81.46538 246.9125Q81.46538 246.36563 81.13725 245.9125Q80.7935 245.44376 80.30913 245.225L79.87163 245.225Q78.80913 245.225 78.13725 245.69376Q77.46538 246.1625 77.46538 246.86563Q77.46538 247.58438 78.01225 248.02188Q78.55913 248.44376 79.46538 248.44376Q80.34038 248.44376 80.90288 248.0375Q81.46538 247.61563 81.46538 246.9125ZM78.90288 237.20938Q79.5435 237.20938 80.0435 237.55313Q80.5435 237.89688 80.82475 238.45938Q81.106 237.80313 81.6685 237.4125Q82.21538 237.02188 82.9185 237.02188Q84.01225 237.02188 84.68413 237.77188Q85.34038 238.50626 85.34038 239.725Q85.34038 240.95938 84.68413 241.70938Q84.01225 242.44376 82.9185 242.44376Q82.21538 242.44376 81.6685 242.06876Q81.106 241.69376 80.82475 241.02188Q80.5435 241.58438 80.0435 241.9125Q79.5435 242.24063 78.90288 242.24063Q77.82475 242.24063 77.19975 241.55313Q76.55913 240.86563 76.55913 239.725Q76.55913 238.6 77.19975 237.9125Q77.82475 237.20938 78.90288 237.20938ZM82.88725 238.1Q82.1685 238.1 81.731 238.55313Q81.27788 239.00626 81.27788 239.74063Q81.27788 240.475 81.731 240.92813Q82.1685 241.36563 82.90288 241.36563Q83.62163 241.36563 84.0435 240.92813Q84.44975 240.49063 84.44975 239.725Q84.44975 238.975 84.02788 238.5375Q83.606 238.1 82.88725 238.1ZM77.44975 239.725Q77.44975 240.36563 77.856 240.77188Q78.24663 241.1625 78.93413 241.1625Q79.57475 241.1625 79.981 240.77188Q80.38725 240.38126 80.38725 239.74063Q80.38725 239.08438 79.981 238.69376Q79.57475 238.30313 78.93413 238.30313Q78.27788 238.30313 77.87163 238.70938Q77.44975 239.11563 77.44975 239.725Z" fill-rule="nonzero"/><path fill="#757575" d="M114.98388 257.80313L114.98388 263.39688L114.20263 263.39688L110.92138 260.44376Q110.17138 259.7875 109.718254 259.5375Q109.249504 259.2875 108.749504 259.2875Q108.07763 259.2875 107.655754 259.69376Q107.218254 260.08438 107.218254 260.77188Q107.218254 261.56876 107.687004 262.02188Q108.14013 262.475 108.968254 262.475L108.968254 263.55313Q107.780754 263.55313 107.062004 262.80313Q106.32763 262.0375 106.32763 260.77188Q106.32763 259.56876 106.95263 258.88126Q107.57763 258.19376 108.624504 258.19376Q109.874504 258.19376 111.624504 259.80313L114.093254 262.08438L114.093254 257.80313L114.98388 257.80313ZM111.343254 251.03749Q113.249504 251.03749 114.187004 251.69374Q115.10888 252.33437 115.10888 253.72499Q115.10888 255.08437 114.20263 255.74062Q113.29638 256.39688 111.48388 256.42813L110.04638 256.42813Q108.155754 256.42813 107.249504 255.78749Q106.32763 255.13124 106.32763 253.74062Q106.32763 252.36562 107.218254 251.70937Q108.093254 251.05312 109.937004 251.03749L111.343254 251.03749ZM109.85888 252.13124Q108.48388 252.13124 107.85888 252.52187Q107.218254 252.89687 107.218254 253.74062Q107.218254 254.56874 107.85888 254.95937Q108.48388 255.33437 109.780754 255.33437L111.51513 255.33437Q112.89013 255.33437 113.562004 254.94374Q114.218254 254.53749 114.218254 253.72499Q114.218254 252.92812 113.593254 252.53749Q112.968254 252.14687 111.64013 252.13124L109.85888 252.13124ZM111.343254 244.03749Q113.249504 244.03749 114.187004 244.69374Q115.10888 245.33437 115.10888 246.72499Q115.10888 248.08437 114.20263 248.74062Q113.29638 249.39687 111.48388 249.42812L110.04638 249.42812Q108.155754 249.42812 107.249504 248.78749Q106.32763 248.13124 106.32763 246.74062Q106.32763 245.36562 107.218254 244.70937Q108.093254 244.05312 109.937004 244.03749L111.343254 244.03749ZM109.85888 245.13124Q108.48388 245.13124 107.85888 245.52187Q107.218254 245.89687 107.218254 246.74062Q107.218254 247.56874 107.85888 247.95937Q108.48388 248.33437 109.780754 248.33437L111.51513 248.33437Q112.89013 248.33437 113.562004 247.94374Q114.218254 247.53749 114.218254 246.72499Q114.218254 245.92812 113.593254 245.53749Q112.968254 245.14687 111.64013 245.13124L109.85888 245.13124ZM114.98388 238.83437L114.98388 239.91249L107.76513 239.91249L108.562004 242.09999L107.57763 242.09999L106.405754 238.99062L106.405754 238.83437L114.98388 238.83437Z" fill-rule="nonzero"/><path fill="#757575" d="M144.75238 257.80313L144.75238 263.39688L143.97113 263.39688L140.68988 260.44376Q139.93988 259.7875 139.48676 259.5375Q139.018 259.2875 138.518 259.2875Q137.84613 259.2875 137.42426 259.69376Q136.98676 260.08438 136.98676 260.77188Q136.98676 261.56876 137.4555 262.02188Q137.90863 262.475 138.73676 262.475L138.73676 263.55313Q137.54926 263.55313 136.8305 262.80313Q136.09613 262.0375 136.09613 260.77188Q136.09613 259.56876 136.72113 258.88126Q137.34613 258.19376 138.393 258.19376Q139.643 258.19376 141.393 259.80313L143.86176 262.08438L143.86176 257.80313L144.75238 257.80313ZM141.11176 251.0375Q143.018 251.0375 143.9555 251.69376Q144.87738 252.33438 144.87738 253.725Q144.87738 255.08438 143.97113 255.74063Q143.06488 256.39688 141.25238 256.42813L139.81488 256.42813Q137.92426 256.42813 137.018 255.7875Q136.09613 255.13126 136.09613 253.74063Q136.09613 252.36563 136.98676 251.70938Q137.86176 251.05313 139.7055 251.0375L141.11176 251.0375ZM139.62738 252.13126Q138.25238 252.13126 137.62738 252.52188Q136.98676 252.89688 136.98676 253.74063Q136.98676 254.56876 137.62738 254.95938Q138.25238 255.33438 139.54926 255.33438L141.28363 255.33438Q142.65863 255.33438 143.3305 254.94376Q143.98676 254.5375 143.98676 253.725Q143.98676 252.92813 143.36176 252.5375Q142.73676 252.14688 141.40863 252.13126L139.62738 252.13126ZM141.11176 244.0375Q143.018 244.0375 143.9555 244.69376Q144.87738 245.33438 144.87738 246.725Q144.87738 248.08438 143.97113 248.74063Q143.06488 249.39688 141.25238 249.42813L139.81488 249.42813Q137.92426 249.42813 137.018 248.7875Q136.09613 248.13126 136.09613 246.74063Q136.09613 245.36563 136.98676 244.70938Q137.86176 244.05313 139.7055 244.0375L141.11176 244.0375ZM139.62738 245.13126Q138.25238 245.13126 137.62738 245.52188Q136.98676 245.89688 136.98676 246.74063Q136.98676 247.56876 137.62738 247.95938Q138.25238 248.33438 139.54926 248.33438L141.28363 248.33438Q142.65863 248.33438 143.3305 247.94376Q143.98676 247.5375 143.98676 246.725Q143.98676 245.92813 143.36176 245.5375Q142.73676 245.14688 141.40863 245.13126L139.62738 245.13126ZM139.9555 240.81876L139.9555 240.00626Q139.93988 239.225 139.54926 238.7875Q139.15863 238.35 138.48676 238.35Q136.98676 238.35 136.98676 239.85Q136.98676 240.55313 137.393 240.975Q137.79926 241.38126 138.4555 241.38126L138.4555 242.475Q137.43988 242.475 136.768 241.74063Q136.09613 240.99063 136.09613 239.85Q136.09613 238.64688 136.73676 237.95938Q137.37738 237.27188 138.518 237.27188Q139.0805 237.27188 139.59613 237.63126Q140.11176 237.99063 140.37738 238.61563Q140.59613 237.9125 141.11176 237.5375Q141.62738 237.14688 142.37738 237.14688Q143.518 237.14688 144.2055 237.89688Q144.87738 238.64688 144.87738 239.85Q144.87738 241.0375 144.22113 241.80313Q143.56488 242.55313 142.50238 242.55313L142.50238 241.45938Q143.17426 241.45938 143.5805 241.02188Q143.98676 240.58438 143.98676 239.83438Q143.98676 239.05313 143.5805 238.64688Q143.15863 238.225 142.393 238.225Q141.65863 238.225 141.268 238.67813Q140.86176 239.13126 140.84613 240.00626L140.84613 240.81876L139.9555 240.81876Z" fill-rule="nonzero"/><path fill="#757575" d="M174.52089 257.80313L174.52089 263.39688L173.73964 263.39688L170.45839 260.44376Q169.70839 259.7875 169.25526 259.5375Q168.78651 259.2875 168.28651 259.2875Q167.61464 259.2875 167.19276 259.69376Q166.75526 260.08438 166.75526 260.77188Q166.75526 261.56876 167.22401 262.02188Q167.67714 262.475 168.50526 262.475L168.50526 263.55313Q167.31776 263.55313 166.59901 262.80313Q165.86464 262.0375 165.86464 260.77188Q165.86464 259.56876 166.48964 258.88126Q167.11464 258.19376 168.16151 258.19376Q169.41151 258.19376 171.16151 259.80313L173.63026 262.08438L173.63026 257.80313L174.52089 257.80313ZM170.88026 251.03749Q172.78651 251.03749 173.72401 251.69374Q174.64589 252.33437 174.64589 253.72499Q174.64589 255.08437 173.73964 255.74062Q172.83339 256.39688 171.02089 256.42813L169.58339 256.42813Q167.69276 256.42813 166.78651 255.78749Q165.86464 255.13124 165.86464 253.74062Q165.86464 252.36562 166.75526 251.70937Q167.63026 251.05312 169.47401 251.03749L170.88026 251.03749ZM169.39589 252.13124Q168.02089 252.13124 167.39589 252.52187Q166.75526 252.89687 166.75526 253.74062Q166.75526 254.56874 167.39589 254.95937Q168.02089 255.33437 169.31776 255.33437L171.05214 255.33437Q172.42714 255.33437 173.09901 254.94374Q173.75526 254.53749 173.75526 253.72499Q173.75526 252.92812 173.13026 252.53749Q172.50526 252.14687 171.17714 252.13124L169.39589 252.13124ZM170.88026 244.03749Q172.78651 244.03749 173.72401 244.69374Q174.64589 245.33437 174.64589 246.72499Q174.64589 248.08437 173.73964 248.74062Q172.83339 249.39687 171.02089 249.42812L169.58339 249.42812Q167.69276 249.42812 166.78651 248.78749Q165.86464 248.13124 165.86464 246.74062Q165.86464 245.36562 166.75526 244.70937Q167.63026 244.05312 169.47401 244.03749L170.88026 244.03749ZM169.39589 245.13124Q168.02089 245.13124 167.39589 245.52187Q166.75526 245.89687 166.75526 246.74062Q166.75526 247.56874 167.39589 247.95937Q168.02089 248.33437 169.31776 248.33437L171.05214 248.33437Q172.42714 248.33437 173.09901 247.94374Q173.75526 247.53749 173.75526 246.72499Q173.75526 245.92812 173.13026 245.53749Q172.50526 245.14687 171.17714 245.13124L169.39589 245.13124ZM170.23964 241.89687L165.98964 241.45937L165.98964 237.08437L166.98964 237.08437L166.98964 240.53749L169.31776 240.80312Q168.94276 240.16249 168.94276 239.36562Q168.94276 238.20937 169.72401 237.52187Q170.48964 236.83437 171.80214 236.83437Q173.11464 236.83437 173.88026 237.55312Q174.64589 238.25624 174.64589 239.53749Q174.64589 240.66249 174.02089 241.38124Q173.38026 242.09999 172.27089 242.19374L172.27089 241.17812Q173.00526 241.06874 173.38026 240.64687Q173.75526 240.22499 173.75526 239.53749Q173.75526 238.78749 173.23964 238.34999Q172.72401 237.91249 171.81776 237.91249Q170.95839 237.91249 170.44276 238.38124Q169.92714 238.84999 169.92714 239.63124Q169.92714 240.33437 170.22401 240.74062L170.45839 241.02187L170.23964 241.89687Z" fill-rule="nonzero"/><path fill="#757575" d="M204.28938 257.80313L204.28938 263.39688L203.50813 263.39688L200.22688 260.44376Q199.47688 259.7875 199.02376 259.5375Q198.55501 259.2875 198.05501 259.2875Q197.38313 259.2875 196.96126 259.69376Q196.52376 260.08438 196.52376 260.77188Q196.52376 261.56876 196.99251 262.02188Q197.44563 262.475 198.27376 262.475L198.27376 263.55313Q197.08626 263.55313 196.36751 262.80313Q195.63313 262.0375 195.63313 260.77188Q195.63313 259.56876 196.25813 258.88126Q196.88313 258.19376 197.93001 258.19376Q199.18001 258.19376 200.93001 259.80313L203.39876 262.08438L203.39876 257.80313L204.28938 257.80313ZM200.64876 251.0375Q202.55501 251.0375 203.49251 251.69376Q204.41438 252.33438 204.41438 253.725Q204.41438 255.08438 203.50813 255.74063Q202.60188 256.39688 200.78938 256.42813L199.35188 256.42813Q197.46126 256.42813 196.55501 255.7875Q195.63313 255.13126 195.63313 253.74063Q195.63313 252.36563 196.52376 251.70938Q197.39876 251.05313 199.24251 251.0375L200.64876 251.0375ZM199.16438 252.13126Q197.78938 252.13126 197.16438 252.52188Q196.52376 252.89688 196.52376 253.74063Q196.52376 254.56876 197.16438 254.95938Q197.78938 255.33438 199.08626 255.33438L200.82063 255.33438Q202.19563 255.33438 202.86751 254.94376Q203.52376 254.5375 203.52376 253.725Q203.52376 252.92813 202.89876 252.5375Q202.27376 252.14688 200.94563 252.13126L199.16438 252.13126ZM200.64876 244.0375Q202.55501 244.0375 203.49251 244.69376Q204.41438 245.33438 204.41438 246.725Q204.41438 248.08438 203.50813 248.74063Q202.60188 249.39688 200.78938 249.42813L199.35188 249.42813Q197.46126 249.42813 196.55501 248.7875Q195.63313 248.13126 195.63313 246.74063Q195.63313 245.36563 196.52376 244.70938Q197.39876 244.05313 199.24251 244.0375L200.64876 244.0375ZM199.16438 245.13126Q197.78938 245.13126 197.16438 245.52188Q196.52376 245.89688 196.52376 246.74063Q196.52376 247.56876 197.16438 247.95938Q197.78938 248.33438 199.08626 248.33438L200.82063 248.33438Q202.19563 248.33438 202.86751 247.94376Q203.52376 247.5375 203.52376 246.725Q203.52376 245.92813 202.89876 245.5375Q202.27376 245.14688 200.94563 245.13126L199.16438 245.13126ZM196.36751 236.88126L204.28938 240.4125L204.28938 241.55313L196.64876 238.0375L196.64876 242.64688L195.75813 242.64688L195.75813 236.88126L196.36751 236.88126Z" fill-rule="nonzero"/><path fill="#757575" d="M234.05789 257.80313L234.05789 263.39688L233.27664 263.39688L229.99539 260.44376Q229.24539 259.7875 228.79227 259.5375Q228.32352 259.2875 227.82352 259.2875Q227.15164 259.2875 226.72977 259.69376Q226.29227 260.08438 226.29227 260.77188Q226.29227 261.56876 226.76102 262.02188Q227.21414 262.475 228.04227 262.475L228.04227 263.55313Q226.85477 263.55313 226.13602 262.80313Q225.40164 262.0375 225.40164 260.77188Q225.40164 259.56876 226.02664 258.88126Q226.65164 258.19376 227.69852 258.19376Q228.94852 258.19376 230.69852 259.80313L233.16727 262.08438L233.16727 257.80313L234.05789 257.80313ZM230.41727 251.0375Q232.32352 251.0375 233.26102 251.69376Q234.18289 252.33438 234.18289 253.725Q234.18289 255.08438 233.27664 255.74063Q232.37039 256.39688 230.55789 256.42813L229.12039 256.42813Q227.22977 256.42813 226.32352 255.7875Q225.40164 255.13126 225.40164 253.74063Q225.40164 252.36563 226.29227 251.70938Q227.16727 251.05313 229.01102 251.0375L230.41727 251.0375ZM228.93289 252.13126Q227.55789 252.13126 226.93289 252.52188Q226.29227 252.89688 226.29227 253.74063Q226.29227 254.56876 226.93289 254.95938Q227.55789 255.33438 228.85477 255.33438L230.58914 255.33438Q231.96414 255.33438 232.63602 254.94376Q233.29227 254.5375 233.29227 253.725Q233.29227 252.92813 232.66727 252.5375Q232.04227 252.14688 230.71414 252.13126L228.93289 252.13126ZM230.41727 244.0375Q232.32352 244.0375 233.26102 244.69376Q234.18289 245.33438 234.18289 246.725Q234.18289 248.08438 233.27664 248.74063Q232.37039 249.39688 230.55789 249.42813L229.12039 249.42813Q227.22977 249.42813 226.32352 248.7875Q225.40164 248.13126 225.40164 246.74063Q225.40164 245.36563 226.29227 244.70938Q227.16727 244.05313 229.01102 244.0375L230.41727 244.0375ZM228.93289 245.13126Q227.55789 245.13126 226.93289 245.52188Q226.29227 245.89688 226.29227 246.74063Q226.29227 247.56876 226.93289 247.95938Q227.55789 248.33438 228.85477 248.33438L230.58914 248.33438Q231.96414 248.33438 232.63602 247.94376Q233.29227 247.5375 233.29227 246.725Q233.29227 245.92813 232.66727 245.5375Q232.04227 245.14688 230.71414 245.13126L228.93289 245.13126ZM230.30789 238.24063Q230.71414 238.56876 230.96414 239.05313Q231.19852 239.52188 231.19852 240.08438Q231.19852 240.81876 230.83914 241.36563Q230.47977 241.9125 229.82352 242.20938Q229.15164 242.50626 228.35477 242.50626Q227.51102 242.50626 226.82352 242.19376Q226.13602 241.86563 225.77664 241.27188Q225.40164 240.6625 225.40164 239.86563Q225.40164 238.6 226.35477 237.88126Q227.30789 237.14688 228.93289 237.14688L229.24539 237.14688Q231.74539 237.14688 232.88602 238.13126Q234.02664 239.11563 234.05789 241.1L234.05789 241.31876L233.15164 241.31876L233.15164 241.08438Q233.12039 239.74063 232.44852 239.02188Q231.77664 238.30313 230.30789 238.24063ZM230.30789 239.9125Q230.30789 239.36563 229.97977 238.9125Q229.63602 238.44376 229.15164 238.225L228.71414 238.225Q227.65164 238.225 226.97977 238.69376Q226.30789 239.1625 226.30789 239.86563Q226.30789 240.58438 226.85477 241.02188Q227.40164 241.44376 228.30789 241.44376Q229.18289 241.44376 229.74539 241.0375Q230.30789 240.61563 230.30789 239.9125Z" fill-rule="nonzero"/><path fill="#757575" d="M263.8264 257.8031L263.8264 263.39685L263.04514 263.39685L259.7639 260.44373Q259.0139 259.78748 258.56076 259.53748Q258.092 259.28748 257.592 259.28748Q256.92014 259.28748 256.49826 259.69373Q256.06076 260.08435 256.06076 260.77185Q256.06076 261.56873 256.5295 262.02185Q256.98264 262.47498 257.81076 262.47498L257.81076 263.5531Q256.62326 263.5531 255.90451 262.8031Q255.17014 262.03748 255.17014 260.77185Q255.17014 259.56873 255.79514 258.88123Q256.42014 258.19373 257.467 258.19373Q258.717 258.19373 260.467 259.8031L262.93576 262.08435L262.93576 257.8031L263.8264 257.8031ZM260.18576 251.03749Q262.092 251.03749 263.0295 251.69374Q263.9514 252.33437 263.9514 253.72499Q263.9514 255.08437 263.04514 255.74062Q262.1389 256.39685 260.3264 256.4281L258.8889 256.4281Q256.99826 256.4281 256.092 255.78749Q255.17014 255.13124 255.17014 253.74062Q255.17014 252.36562 256.06076 251.70937Q256.93576 251.05312 258.7795 251.03749L260.18576 251.03749ZM258.7014 252.13124Q257.3264 252.13124 256.7014 252.52187Q256.06076 252.89687 256.06076 253.74062Q256.06076 254.56874 256.7014 254.95937Q257.3264 255.33437 258.62326 255.33437L260.35764 255.33437Q261.73264 255.33437 262.4045 254.94374Q263.06076 254.53749 263.06076 253.72499Q263.06076 252.92812 262.43576 252.53749Q261.81076 252.14687 260.48264 252.13124L258.7014 252.13124ZM263.8264 245.83437L263.8264 246.91249L256.60764 246.91249L257.4045 249.09999L256.42014 249.09999L255.24826 245.99062L255.24826 245.83437L263.8264 245.83437ZM263.8264 238.83437L263.8264 239.91249L256.60764 239.91249L257.4045 242.09999L256.42014 242.09999L255.24826 238.99062L255.24826 238.83437L263.8264 238.83437Z" fill-rule="nonzero"/><path fill="#757575" d="M293.59488 257.80313L293.59488 263.39688L292.81363 263.39688L289.53238 260.44376Q288.78238 259.7875 288.32925 259.5375Q287.8605 259.2875 287.3605 259.2875Q286.68863 259.2875 286.26675 259.69376Q285.82925 260.08438 285.82925 260.77188Q285.82925 261.56876 286.298 262.02188Q286.75113 262.475 287.57925 262.475L287.57925 263.55313Q286.39175 263.55313 285.673 262.80313Q284.93863 262.0375 284.93863 260.77188Q284.93863 259.56876 285.56363 258.88126Q286.18863 258.19376 287.2355 258.19376Q288.4855 258.19376 290.2355 259.80313L292.70425 262.08438L292.70425 257.80313L293.59488 257.80313ZM289.95425 251.03749Q291.8605 251.03749 292.798 251.69374Q293.71988 252.33437 293.71988 253.72499Q293.71988 255.08437 292.81363 255.74062Q291.90738 256.39688 290.09488 256.42813L288.65738 256.42813Q286.76675 256.42813 285.8605 255.78749Q284.93863 255.13124 284.93863 253.74062Q284.93863 252.36562 285.82925 251.70937Q286.70425 251.05312 288.548 251.03749L289.95425 251.03749ZM288.46988 252.13124Q287.09488 252.13124 286.46988 252.52187Q285.82925 252.89687 285.82925 253.74062Q285.82925 254.56874 286.46988 254.95937Q287.09488 255.33437 288.39175 255.33437L290.12613 255.33437Q291.50113 255.33437 292.173 254.94374Q292.82925 254.53749 292.82925 253.72499Q292.82925 252.92812 292.20425 252.53749Q291.57925 252.14687 290.25113 252.13124L288.46988 252.13124ZM293.59488 245.83437L293.59488 246.91249L286.37613 246.91249L287.173 249.09999L286.18863 249.09999L285.01675 245.99062L285.01675 245.83437L293.59488 245.83437ZM288.798 240.81874L288.798 240.00624Q288.78238 239.22499 288.39175 238.78749Q288.00113 238.34999 287.32925 238.34999Q285.82925 238.34999 285.82925 239.84999Q285.82925 240.55312 286.2355 240.97499Q286.64175 241.38124 287.298 241.38124L287.298 242.47499Q286.28238 242.47499 285.6105 241.74062Q284.93863 240.99062 284.93863 239.84999Q284.93863 238.64687 285.57925 237.95937Q286.21988 237.27187 287.3605 237.27187Q287.923 237.27187 288.43863 237.63124Q288.95425 237.99062 289.21988 238.61562Q289.43863 237.91249 289.95425 237.53749Q290.46988 237.14687 291.21988 237.14687Q292.3605 237.14687 293.048 237.89687Q293.71988 238.64687 293.71988 239.84999Q293.71988 241.03749 293.06363 241.80312Q292.40738 242.55312 291.34488 242.55312L291.34488 241.45937Q292.01675 241.45937 292.423 241.02187Q292.82925 240.58437 292.82925 239.83437Q292.82925 239.05312 292.423 238.64687Q292.00113 238.22499 291.2355 238.22499Q290.50113 238.22499 290.1105 238.67812Q289.70425 239.13124 289.68863 240.00624L289.68863 240.81874L288.798 240.81874Z" fill-rule="nonzero"/><path fill="#757575" d="M323.36337 257.80313L323.36337 263.39688L322.58212 263.39688L319.30087 260.44376Q318.55087 259.7875 318.09775 259.5375Q317.629 259.2875 317.129 259.2875Q316.45712 259.2875 316.03525 259.69376Q315.59775 260.08438 315.59775 260.77188Q315.59775 261.56876 316.0665 262.02188Q316.51962 262.475 317.34775 262.475L317.34775 263.55313Q316.16025 263.55313 315.4415 262.80313Q314.70712 262.0375 314.70712 260.77188Q314.70712 259.56876 315.33212 258.88126Q315.95712 258.19376 317.004 258.19376Q318.254 258.19376 320.004 259.80313L322.47275 262.08438L322.47275 257.80313L323.36337 257.80313ZM319.72275 251.0375Q321.629 251.0375 322.5665 251.69376Q323.48837 252.33438 323.48837 253.725Q323.48837 255.08438 322.58212 255.74063Q321.67587 256.39688 319.86337 256.42813L318.42587 256.42813Q316.53525 256.42813 315.629 255.7875Q314.70712 255.13126 314.70712 253.74063Q314.70712 252.36563 315.59775 251.70938Q316.47275 251.05313 318.3165 251.0375L319.72275 251.0375ZM318.23837 252.13126Q316.86337 252.13126 316.23837 252.52188Q315.59775 252.89688 315.59775 253.74063Q315.59775 254.56876 316.23837 254.95938Q316.86337 255.33438 318.16025 255.33438L319.89462 255.33438Q321.26962 255.33438 321.9415 254.94376Q322.59775 254.5375 322.59775 253.725Q322.59775 252.92813 321.97275 252.5375Q321.34775 252.14688 320.01962 252.13126L318.23837 252.13126ZM323.36337 245.83438L323.36337 246.9125L316.14462 246.9125L316.9415 249.1L315.95712 249.1L314.78525 245.99063L314.78525 245.83438L323.36337 245.83438ZM319.08212 241.89688L314.83212 241.45938L314.83212 237.08438L315.83212 237.08438L315.83212 240.5375L318.16025 240.80313Q317.78525 240.1625 317.78525 239.36563Q317.78525 238.20938 318.5665 237.52188Q319.33212 236.83438 320.64462 236.83438Q321.95712 236.83438 322.72275 237.55313Q323.48837 238.25626 323.48837 239.5375Q323.48837 240.6625 322.86337 241.38126Q322.22275 242.1 321.11337 242.19376L321.11337 241.17813Q321.84775 241.06876 322.22275 240.64688Q322.59775 240.225 322.59775 239.5375Q322.59775 238.7875 322.08212 238.35Q321.5665 237.9125 320.66025 237.9125Q319.80087 237.9125 319.28525 238.38126Q318.76962 238.85 318.76962 239.63126Q318.76962 240.33438 319.0665 240.74063L319.30087 241.02188L319.08212 241.89688Z" fill-rule="nonzero"/><path fill="#757575" d="M353.1319 257.80313L353.1319 263.39688L352.35065 263.39688L349.0694 260.44376Q348.3194 259.7875 347.86627 259.5375Q347.39752 259.2875 346.89752 259.2875Q346.22565 259.2875 345.80377 259.69376Q345.36627 260.08438 345.36627 260.77188Q345.36627 261.56876 345.83502 262.02188Q346.28815 262.475 347.11627 262.475L347.11627 263.55313Q345.92877 263.55313 345.21002 262.80313Q344.47565 262.0375 344.47565 260.77188Q344.47565 259.56876 345.10065 258.88126Q345.72565 258.19376 346.77252 258.19376Q348.02252 258.19376 349.77252 259.80313L352.24127 262.08438L352.24127 257.80313L353.1319 257.80313ZM349.49127 251.0375Q351.39752 251.0375 352.33502 251.69376Q353.2569 252.33438 353.2569 253.725Q353.2569 255.08438 352.35065 255.74063Q351.4444 256.39688 349.6319 256.42813L348.1944 256.42813Q346.30377 256.42813 345.39752 255.7875Q344.47565 255.13126 344.47565 253.74063Q344.47565 252.36563 345.36627 251.70938Q346.24127 251.05313 348.08502 251.0375L349.49127 251.0375ZM348.0069 252.13126Q346.6319 252.13126 346.0069 252.52188Q345.36627 252.89688 345.36627 253.74063Q345.36627 254.56876 346.0069 254.95938Q346.6319 255.33438 347.92877 255.33438L349.66315 255.33438Q351.03815 255.33438 351.71002 254.94376Q352.36627 254.5375 352.36627 253.725Q352.36627 252.92813 351.74127 252.5375Q351.11627 252.14688 349.78815 252.13126L348.0069 252.13126ZM353.1319 245.83438L353.1319 246.9125L345.91315 246.9125L346.71002 249.1L345.72565 249.1L344.55377 245.99063L344.55377 245.83438L353.1319 245.83438ZM345.21002 236.88126L353.1319 240.4125L353.1319 241.55313L345.49127 238.0375L345.49127 242.64688L344.60065 242.64688L344.60065 236.88126L345.21002 236.88126Z" fill-rule="nonzero"/><path fill="#757575" d="M382.9004 257.8031L382.9004 263.39685L382.11914 263.39685L378.8379 260.44373Q378.0879 259.78748 377.63477 259.53748Q377.16602 259.28748 376.66602 259.28748Q375.99414 259.28748 375.57227 259.69373Q375.13477 260.08435 375.13477 260.77185Q375.13477 261.56873 375.60352 262.02185Q376.05664 262.47498 376.88477 262.47498L376.88477 263.5531Q375.69727 263.5531 374.97852 262.8031Q374.24414 262.03748 374.24414 260.77185Q374.24414 259.56873 374.86914 258.88123Q375.49414 258.19373 376.54102 258.19373Q377.79102 258.19373 379.54102 259.8031L382.00977 262.08435L382.00977 257.8031L382.9004 257.8031ZM379.25977 251.03749Q381.16602 251.03749 382.10352 251.69374Q383.0254 252.33437 383.0254 253.72499Q383.0254 255.08437 382.11914 255.74062Q381.2129 256.39685 379.4004 256.4281L377.9629 256.4281Q376.07227 256.4281 375.16602 255.78749Q374.24414 255.13124 374.24414 253.74062Q374.24414 252.36562 375.13477 251.70937Q376.00977 251.05312 377.85352 251.03749L379.25977 251.03749ZM377.7754 252.13124Q376.4004 252.13124 375.7754 252.52187Q375.13477 252.89687 375.13477 253.74062Q375.13477 254.56874 375.7754 254.95937Q376.4004 255.33437 377.69727 255.33437L379.43164 255.33437Q380.80664 255.33437 381.47852 254.94374Q382.13477 254.53749 382.13477 253.72499Q382.13477 252.92812 381.50977 252.53749Q380.88477 252.14687 379.55664 252.13124L377.7754 252.13124ZM382.9004 245.83437L382.9004 246.91249L375.68164 246.91249L376.47852 249.09999L375.49414 249.09999L374.32227 245.99062L374.32227 245.83437L382.9004 245.83437ZM379.1504 238.24062Q379.55664 238.56874 379.80664 239.05312Q380.04102 239.52187 380.04102 240.08437Q380.04102 240.81874 379.68164 241.36562Q379.32227 241.91249 378.66602 242.20937Q377.99414 242.50624 377.19727 242.50624Q376.35352 242.50624 375.66602 242.19374Q374.97852 241.86562 374.61914 241.27187Q374.24414 240.66249 374.24414 239.86562Q374.24414 238.59999 375.19727 237.88124Q376.1504 237.14687 377.7754 237.14687L378.0879 237.14687Q380.5879 237.14687 381.72852 238.13124Q382.86914 239.11562 382.9004 241.09999L382.9004 241.31874L381.99414 241.31874L381.99414 241.08437Q381.9629 239.74062 381.29102 239.02187Q380.61914 238.30312 379.1504 238.24062ZM379.1504 239.91249Q379.1504 239.36562 378.82227 238.91249Q378.47852 238.44374 377.99414 238.22499L377.55664 238.22499Q376.49414 238.22499 375.82227 238.69374Q375.1504 239.16249 375.1504 239.86562Q375.1504 240.58437 375.69727 241.02187Q376.24414 241.44374 377.1504 241.44374Q378.0254 241.44374 378.5879 241.03749Q379.1504 240.61562 379.1504 239.91249Z" fill-rule="nonzero"/><path fill="#757575" d="M412.66888 257.80313L412.66888 263.39688L411.88763 263.39688L408.60638 260.44376Q407.85638 259.7875 407.40326 259.5375Q406.9345 259.2875 406.4345 259.2875Q405.76263 259.2875 405.34076 259.69376Q404.90326 260.08438 404.90326 260.77188Q404.90326 261.56876 405.372 262.02188Q405.82513 262.475 406.65326 262.475L406.65326 263.55313Q405.46576 263.55313 404.747 262.80313Q404.01263 262.0375 404.01263 260.77188Q404.01263 259.56876 404.63763 258.88126Q405.26263 258.19376 406.3095 258.19376Q407.5595 258.19376 409.3095 259.80313L411.77826 262.08438L411.77826 257.80313L412.66888 257.80313ZM409.02826 251.03749Q410.9345 251.03749 411.872 251.69374Q412.79388 252.33437 412.79388 253.72499Q412.79388 255.08437 411.88763 255.74062Q410.98138 256.39688 409.16888 256.42813L407.73138 256.42813Q405.84076 256.42813 404.9345 255.78749Q404.01263 255.13124 404.01263 253.74062Q404.01263 252.36562 404.90326 251.70937Q405.77826 251.05312 407.622 251.03749L409.02826 251.03749ZM407.54388 252.13124Q406.16888 252.13124 405.54388 252.52187Q404.90326 252.89687 404.90326 253.74062Q404.90326 254.56874 405.54388 254.95937Q406.16888 255.33437 407.46576 255.33437L409.20013 255.33437Q410.57513 255.33437 411.247 254.94374Q411.90326 254.53749 411.90326 253.72499Q411.90326 252.92812 411.27826 252.53749Q410.65326 252.14687 409.32513 252.13124L407.54388 252.13124ZM412.66888 243.80312L412.66888 249.39687L411.88763 249.39687L408.60638 246.44374Q407.85638 245.78749 407.40326 245.53749Q406.9345 245.28749 406.4345 245.28749Q405.76263 245.28749 405.34076 245.69374Q404.90326 246.08437 404.90326 246.77187Q404.90326 247.56874 405.372 248.02187Q405.82513 248.47499 406.65326 248.47499L406.65326 249.55312Q405.46576 249.55312 404.747 248.80312Q404.01263 248.03749 404.01263 246.77187Q404.01263 245.56874 404.63763 244.88124Q405.26263 244.19374 406.3095 244.19374Q407.5595 244.19374 409.3095 245.80312L411.77826 248.08437L411.77826 243.80312L412.66888 243.80312ZM412.66888 238.83437L412.66888 239.91249L405.45013 239.91249L406.247 242.09999L405.26263 242.09999L404.09076 238.99062L404.09076 238.83437L412.66888 238.83437Z" fill-rule="nonzero"/><path fill="#757575" d="M17.43125 27.337502L17.43125 32.9L15.55625 32.9L15.55625 18.681252L20.790625 18.681252Q23.134375 18.681252 24.446875 19.868752Q25.775 21.056252 25.775 23.025002Q25.775 25.103127 24.478125 26.228127Q23.18125 27.337502 20.775 27.337502L17.43125 27.337502ZM17.43125 25.806252L20.790625 25.806252Q22.30625 25.806252 23.103125 25.103127Q23.9 24.384377 23.9 23.040627Q23.9 21.775002 23.103125 21.025002Q22.30625 20.259377 20.9 20.228127L17.43125 20.228127L17.43125 25.806252ZM34.790627 32.9Q34.634377 32.5875 34.540627 31.790627Q33.275 33.103127 31.525 33.103127Q29.9625 33.103127 28.9625 32.2125Q27.9625 31.321877 27.9625 29.962502Q27.9625 28.321877 29.2125 27.415627Q30.478125 26.493752 32.74375 26.493752L34.509377 26.493752L34.509377 25.665627Q34.509377 24.712502 33.93125 24.150002Q33.36875 23.587502 32.275 23.587502Q31.30625 23.587502 30.65 24.087502Q29.99375 24.571877 29.99375 25.259377L28.18125 25.259377Q28.18125 24.478127 28.74375 23.743752Q29.30625 22.993752 30.259375 22.571877Q31.228125 22.134377 32.384377 22.134377Q34.2125 22.134377 35.24375 23.056252Q36.275 23.962502 36.321877 25.571877L36.321877 30.431252Q36.321877 31.884377 36.68125 32.74375L36.68125 32.9L34.790627 32.9ZM31.790625 31.525002Q32.65 31.525002 33.4 31.087502Q34.165627 30.650002 34.509377 29.946877L34.509377 27.775002L33.0875 27.775002Q29.775 27.775002 29.775 29.712502Q29.775 30.571877 30.3375 31.056252Q30.9 31.525002 31.790625 31.525002ZM48.196877 27.728127Q48.196877 30.150002 47.0875 31.634377Q45.99375 33.103127 44.103127 33.103127Q42.18125 33.103127 41.071877 31.868752L41.071877 36.9625L39.275 36.9625L39.275 22.337502L40.915627 22.337502L41.009377 23.509377Q42.103127 22.134377 44.071877 22.134377Q45.978127 22.134377 47.0875 23.571877Q48.196877 25.009377 48.196877 27.571877L48.196877 27.728127ZM46.384377 27.525002Q46.384377 25.743752 45.61875 24.712502Q44.86875 23.665627 43.540627 23.665627Q41.9 23.665627 41.071877 25.118752L41.071877 30.181252Q41.884377 31.618752 43.55625 31.618752Q44.853127 31.618752 45.61875 30.587502Q46.384377 29.556252 46.384377 27.525002ZM54.65 33.103127Q52.509377 33.103127 51.15 31.696877Q49.80625 30.275002 49.80625 27.915627L49.80625 27.571877Q49.80625 26.009377 50.4 24.775002Q51.009377 23.540627 52.0875 22.837502Q53.165627 22.134377 54.43125 22.134377Q56.49375 22.134377 57.634377 23.493752Q58.775 24.853127 58.775 27.384377L58.775 28.134377L51.61875 28.134377Q51.65 29.696877 52.525 30.665627Q53.4 31.618752 54.74375 31.618752Q55.7125 31.618752 56.36875 31.228127Q57.040627 30.837502 57.540627 30.196877L58.634377 31.056252Q57.30625 33.103127 54.65 33.103127ZM54.43125 23.618752Q53.3375 23.618752 52.5875 24.415627Q51.853127 25.212502 51.68125 26.650002L56.9625 26.650002L56.9625 26.509377Q56.884377 25.134377 56.2125 24.384377Q55.55625 23.618752 54.43125 23.618752ZM66.36875 23.946877Q65.9625 23.884377 65.49375 23.884377Q63.7125 23.884377 63.071877 25.400002L63.071877 32.9L61.275 32.9L61.275 22.337502L63.025 22.337502L63.05625 23.556252Q63.946877 22.134377 65.57188 22.134377Q66.10313 22.134377 66.36875 22.275002L66.36875 23.946877ZM72.82188 27.525002Q72.82188 25.103127 73.97813 23.618752Q75.13438 22.134377 76.99375 22.134377Q78.85313 22.134377 79.93125 23.400002L79.93125 17.900002L81.74375 17.900002L81.74375 32.9L80.0875 32.9L79.99375 31.759377Q78.91563 33.103127 76.97813 33.103127Q75.15 33.103127 73.97813 31.603127Q72.82188 30.087502 72.82188 27.665627L72.82188 27.525002ZM74.63438 27.728127Q74.63438 29.525002 75.36875 30.540627Q76.11875 31.556252 77.43125 31.556252Q79.15 31.556252 79.93125 30.025002L79.93125 25.165627Q79.13438 23.665627 77.44688 23.665627Q76.11875 23.665627 75.36875 24.696877Q74.63438 25.728127 74.63438 27.728127ZM86.22813 32.9L84.43125 32.9L84.43125 22.337502L86.22813 22.337502L86.22813 32.9ZM84.275 19.525002Q84.275 19.087502 84.54063 18.790627Q84.82188 18.478127 85.3375 18.478127Q85.86875 18.478127 86.13438 18.790627Q86.41563 19.087502 86.41563 19.525002Q86.41563 19.962502 86.13438 20.259377Q85.86875 20.556252 85.3375 20.556252Q84.82188 20.556252 84.54063 20.259377Q84.275 19.962502 84.275 19.525002ZM95.41563 30.103127Q95.41563 29.368752 94.86875 28.962502Q94.32188 28.556252 92.94688 28.259377Q91.57188 27.962502 90.75938 27.556252Q89.9625 27.150002 89.57188 26.587502Q89.19688 26.009377 89.19688 25.228127Q89.19688 23.931252 90.29063 23.040627Q91.38438 22.134377 93.10313 22.134377Q94.9 22.134377 96.00938 23.071877Q97.13438 23.993752 97.13438 25.431252L95.30625 25.431252Q95.30625 24.696877 94.68125 24.165627Q94.05625 23.618752 93.10313 23.618752Q92.10313 23.618752 91.54063 24.056252Q90.99375 24.478127 90.99375 25.181252Q90.99375 25.821877 91.50938 26.165627Q92.025 26.493752 93.38438 26.806252Q94.74375 27.103127 95.57188 27.525002Q96.41563 27.931252 96.82188 28.525002Q97.22813 29.118752 97.22813 29.962502Q97.22813 31.384377 96.0875 32.24375Q94.9625 33.103127 93.15 33.103127Q91.88438 33.103127 90.9 32.65Q89.93125 32.196877 89.36875 31.400002Q88.82188 30.587502 88.82188 29.650002L90.63438 29.650002Q90.68125 30.556252 91.35313 31.087502Q92.04063 31.618752 93.15 31.618752Q94.18125 31.618752 94.79063 31.212502Q95.41563 30.790627 95.41563 30.103127ZM101.7125 19.775002L101.7125 22.337502L103.69688 22.337502L103.69688 23.728127L101.7125 23.728127L101.7125 30.275002Q101.7125 30.915627 101.97813 31.243752Q102.24375 31.556252 102.88438 31.556252Q103.19688 31.556252 103.74375 31.431252L103.74375 32.9Q103.025 33.103127 102.35313 33.103127Q101.15 33.103127 100.525 32.36875Q99.91563 31.634377 99.91563 30.275002L99.91563 23.728127L97.99375 23.728127L97.99375 22.337502L99.91563 22.337502L99.91563 19.775002L101.7125 19.775002ZM111.36875 23.946877Q110.9625 23.884377 110.49375 23.884377Q108.7125 23.884377 108.07188 25.400002L108.07188 32.9L106.275 32.9L106.275 22.337502L108.025 22.337502L108.05625 23.556252Q108.94688 22.134377 110.57188 22.134377Q111.10313 22.134377 111.36875 22.275002L111.36875 23.946877ZM115.22813 32.9L113.43125 32.9L113.43125 22.337502L115.22813 22.337502L115.22813 32.9ZM113.275 19.525002Q113.275 19.087502 113.54063 18.790627Q113.82188 18.478127 114.3375 18.478127Q114.86875 18.478127 115.13438 18.790627Q115.41563 19.087502 115.41563 19.525002Q115.41563 19.962502 115.13438 20.259377Q114.86875 20.556252 114.3375 20.556252Q113.82188 20.556252 113.54063 20.259377Q113.275 19.962502 113.275 19.525002ZM127.2125 27.728127Q127.2125 30.150002 126.10313 31.634377Q124.99375 33.103127 123.11875 33.103127Q121.10313 33.103127 120.00938 31.681252L119.93125 32.9L118.275 32.9L118.275 17.900002L120.07188 17.900002L120.07188 23.493752Q121.16563 22.134377 123.0875 22.134377Q125.00938 22.134377 126.10313 23.587502Q127.2125 25.040627 127.2125 27.571877L127.2125 27.728127ZM125.4 27.525002Q125.4 25.681252 124.68125 24.681252Q123.97813 23.665627 122.65 23.665627Q120.85313 23.665627 120.07188 25.337502L120.07188 29.900002Q120.9 31.556252 122.66563 31.556252Q123.9625 31.556252 124.68125 30.556252Q125.4 29.556252 125.4 27.525002ZM135.79062 31.853127Q134.74374 33.103127 132.69687 33.103127Q131.00937 33.103127 130.11874 32.11875Q129.24374 31.134377 129.22812 29.212502L129.22812 22.337502L131.04062 22.337502L131.04062 29.165627Q131.04062 31.556252 132.99374 31.556252Q135.05624 31.556252 135.74374 30.025002L135.74374 22.337502L137.55624 22.337502L137.55624 32.9L135.8375 32.9L135.79062 31.853127ZM142.7125 19.775002L142.7125 22.337502L144.69687 22.337502L144.69687 23.728127L142.7125 23.728127L142.7125 30.275002Q142.7125 30.915627 142.97812 31.243752Q143.24374 31.556252 143.88437 31.556252Q144.19687 31.556252 144.74374 31.431252L144.74374 32.9Q144.025 33.103127 143.35312 33.103127Q142.15 33.103127 141.525 32.36875Q140.91562 31.634377 140.91562 30.275002L140.91562 23.728127L138.99374 23.728127L138.99374 22.337502L140.91562 22.337502L140.91562 19.775002L142.7125 19.775002ZM149.22812 32.9L147.43124 32.9L147.43124 22.337502L149.22812 22.337502L149.22812 32.9ZM147.275 19.525002Q147.275 19.087502 147.54062 18.790627Q147.82187 18.478127 148.3375 18.478127Q148.86874 18.478127 149.13437 18.790627Q149.41562 19.087502 149.41562 19.525002Q149.41562 19.962502 149.13437 20.259377Q148.86874 20.556252 148.3375 20.556252Q147.82187 20.556252 147.54062 20.259377Q147.275 19.962502 147.275 19.525002ZM151.79062 27.525002Q151.79062 25.962502 152.4 24.728127Q153.00937 23.478127 154.0875 22.806252Q155.18124 22.134377 156.5875 22.134377Q158.74374 22.134377 160.07187 23.634377Q161.41562 25.118752 161.41562 27.603127L161.41562 27.728127Q161.41562 29.275002 160.82187 30.509377Q160.22812 31.728127 159.11874 32.415627Q158.025 33.103127 156.60312 33.103127Q154.4625 33.103127 153.11874 31.603127Q151.79062 30.103127 151.79062 27.650002L151.79062 27.525002ZM153.60312 27.728127Q153.60312 29.493752 154.41562 30.556252Q155.24374 31.618752 156.60312 31.618752Q157.97812 31.618752 158.79062 30.540627Q159.60312 29.462502 159.60312 27.525002Q159.60312 25.775002 158.775 24.696877Q157.94687 23.618752 156.5875 23.618752Q155.24374 23.618752 154.41562 24.681252Q153.60312 25.743752 153.60312 27.728127ZM164.97812 22.337502L165.04062 23.665627Q166.24374 22.134377 168.19687 22.134377Q171.55624 22.134377 171.57187 25.915627L171.57187 32.9L169.775 32.9L169.775 25.900002Q169.75937 24.759377 169.24374 24.212502Q168.74374 23.665627 167.65 23.665627Q166.775 23.665627 166.10312 24.134377Q165.44687 24.603127 165.07187 25.368752L165.07187 32.9L163.275 32.9L163.275 22.337502L164.97812 22.337502ZM178.79062 27.525002Q178.79062 25.962502 179.4 24.728127Q180.00937 23.478127 181.0875 22.806252Q182.18124 22.134377 183.5875 22.134377Q185.74374 22.134377 187.07187 23.634377Q188.41562 25.118752 188.41562 27.603127L188.41562 27.728127Q188.41562 29.275002 187.82187 30.509377Q187.22812 31.728127 186.11874 32.415627Q185.025 33.103127 183.60312 33.103127Q181.4625 33.103127 180.11874 31.603127Q178.79062 30.103127 178.79062 27.650002L178.79062 27.525002ZM180.60312 27.728127Q180.60312 29.493752 181.41562 30.556252Q182.24374 31.618752 183.60312 31.618752Q184.97812 31.618752 185.79062 30.540627Q186.60312 29.462502 186.60312 27.525002Q186.60312 25.775002 185.775 24.696877Q184.94687 23.618752 183.5875 23.618752Q182.24374 23.618752 181.41562 24.681252Q180.60312 25.743752 180.60312 27.728127ZM193.75937 30.446877L196.36874 22.337502L198.2125 22.337502L194.43124 32.9L193.05624 32.9L189.22812 22.337502L191.07187 22.337502L193.75937 30.446877ZM204.65 33.103127Q202.50937 33.103127 201.15 31.696877Q199.80624 30.275002 199.80624 27.915627L199.80624 27.571877Q199.80624 26.009377 200.4 24.775002Q201.00937 23.540627 202.0875 22.837502Q203.16562 22.134377 204.43124 22.134377Q206.49374 22.134377 207.63437 23.493752Q208.775 24.853127 208.775 27.384377L208.775 28.134377L201.61874 28.134377Q201.65 29.696877 202.525 30.665627Q203.4 31.618752 204.74374 31.618752Q205.7125 31.618752 206.36874 31.228127Q207.04062 30.837502 207.54062 30.196877L208.63437 31.056252Q207.30624 33.103127 204.65 33.103127ZM204.43124 23.618752Q203.3375 23.618752 202.5875 24.415627Q201.85312 25.212502 201.68124 26.650002L206.9625 26.650002L206.9625 26.509377Q206.88437 25.134377 206.2125 24.384377Q205.55624 23.618752 204.43124 23.618752ZM216.36874 23.946877Q215.9625 23.884377 215.49374 23.884377Q213.7125 23.884377 213.07187 25.400002L213.07187 32.9L211.275 32.9L211.275 22.337502L213.025 22.337502L213.05624 23.556252Q213.94687 22.134377 215.57187 22.134377Q216.10312 22.134377 216.36874 22.275002L216.36874 23.946877ZM226.72812 30.259377L229.18124 22.337502L231.11874 22.337502L226.86874 34.525Q225.88437 37.165627 223.74374 37.165627L223.4 37.134377L222.72812 37.009377L222.72812 35.540627L223.2125 35.5875Q224.13437 35.5875 224.63437 35.2125Q225.15 34.8375 225.47812 33.853127L225.88437 32.775L222.11874 22.337502L224.0875 22.337502L226.72812 30.259377ZM236.65 33.103127Q234.50937 33.103127 233.15 31.696877Q231.80624 30.275002 231.80624 27.915627L231.80624 27.571877Q231.80624 26.009377 232.4 24.775002Q233.00937 23.540627 234.0875 22.837502Q235.16562 22.134377 236.43124 22.134377Q238.49374 22.134377 239.63437 23.493752Q240.775 24.853127 240.775 27.384377L240.775 28.134377L233.61874 28.134377Q233.65 29.696877 234.525 30.665627Q235.4 31.618752 236.74374 31.618752Q237.7125 31.618752 238.36874 31.228127Q239.04062 30.837502 239.54062 30.196877L240.63437 31.056252Q239.30624 33.103127 236.65 33.103127ZM236.43124 23.618752Q235.3375 23.618752 234.5875 24.415627Q233.85312 25.212502 233.68124 26.650002L238.9625 26.650002L238.9625 26.509377Q238.88437 25.134377 238.2125 24.384377Q237.55624 23.618752 236.43124 23.618752ZM249.79062 32.9Q249.63437 32.5875 249.54062 31.790627Q248.275 33.103127 246.525 33.103127Q244.9625 33.103127 243.9625 32.2125Q242.9625 31.321877 242.9625 29.962502Q242.9625 28.321877 244.2125 27.415627Q245.47812 26.493752 247.74374 26.493752L249.50937 26.493752L249.50937 25.665627Q249.50937 24.712502 248.93124 24.150002Q248.36874 23.587502 247.275 23.587502Q246.30624 23.587502 245.65 24.087502Q244.99374 24.571877 244.99374 25.259377L243.18124 25.259377Q243.18124 24.478127 243.74374 23.743752Q244.30624 22.993752 245.25937 22.571877Q246.22812 22.134377 247.38437 22.134377Q249.2125 22.134377 250.24374 23.056252Q251.275 23.962502 251.32187 25.571877L251.32187 30.431252Q251.32187 31.884377 251.68124 32.74375L251.68124 32.9L249.79062 32.9ZM246.79062 31.525002Q247.65 31.525002 248.4 31.087502Q249.16562 30.650002 249.50937 29.946877L249.50937 27.775002L248.0875 27.775002Q244.775 27.775002 244.775 29.712502Q244.775 30.571877 245.3375 31.056252Q245.9 31.525002 246.79062 31.525002ZM259.36874 23.946877Q258.9625 23.884377 258.49374 23.884377Q256.7125 23.884377 256.07187 25.400002L256.07187 32.9L254.275 32.9L254.275 22.337502L256.025 22.337502L256.05624 23.556252Q256.94687 22.134377 258.57187 22.134377Q259.10312 22.134377 259.36874 22.275002L259.36874 23.946877ZM267.41562 30.103127Q267.41562 29.368752 266.86874 28.962502Q266.32187 28.556252 264.94687 28.259377Q263.57187 27.962502 262.75937 27.556252Q261.9625 27.150002 261.57187 26.587502Q261.19687 26.009377 261.19687 25.228127Q261.19687 23.931252 262.29062 23.040627Q263.38437 22.134377 265.10312 22.134377Q266.9 22.134377 268.00937 23.071877Q269.13437 23.993752 269.13437 25.431252L267.30624 25.431252Q267.30624 24.696877 266.68124 24.165627Q266.05624 23.618752 265.10312 23.618752Q264.10312 23.618752 263.54062 24.056252Q262.99374 24.478127 262.99374 25.181252Q262.99374 25.821877 263.50937 26.165627Q264.025 26.493752 265.38437 26.806252Q266.74374 27.103127 267.57187 27.525002Q268.41562 27.931252 268.82187 28.525002Q269.22812 29.118752 269.22812 29.962502Q269.22812 31.384377 268.0875 32.24375Q266.9625 33.103127 265.15 33.103127Q263.88437 33.103127 262.9 32.65Q261.93124 32.196877 261.36874 31.400002Q260.82187 30.587502 260.82187 29.650002L262.63437 29.650002Q262.68124 30.556252 263.35312 31.087502Q264.04062 31.618752 265.15 31.618752Q266.18124 31.618752 266.79062 31.212502Q267.41562 30.790627 267.41562 30.103127Z" fill-rule="nonzero"/></svg>